<?xml version="1.0" encoding="utf-8"?>
<!-- Generator: Adobe Illustrator 16.0.0, SVG Export Plug-In . SVG Version: 6.00 Build 0)  -->
<!DOCTYPE svg PUBLIC "-//W3C//DTD SVG 1.1//EN" "http://www.w3.org/Graphics/SVG/1.1/DTD/svg11.dtd">
<svg version="1.1" id="Layer_1" xmlns="http://www.w3.org/2000/svg" xmlns:xlink="http://www.w3.org/1999/xlink" x="0px" y="0px"
	 width="1400px" height="980px" viewBox="0 0 1400 980" enable-background="new 0 0 1400 980" xml:space="preserve">
<pattern  x="300" y="90" width="341.266" height="320.402" patternUnits="userSpaceOnUse" id="New_Pattern" viewBox="72.285 -353.336 341.266 320.402" overflow="visible">
	<g>
		<polygon fill-rule="evenodd" clip-rule="evenodd" fill="none" points="72.285,-353.336 413.551,-353.336 413.551,-32.934 
			72.285,-32.934 		"/>
		<g>
			<g>
				<path fill="#C5B9BB" d="M248.955-10.388c17.84-5.82,19.956-34.336,5.512-45.001c-6.478-4.783-17.792-10.389-25.675-11.308
					c-19.005-2.212-30.201,19.18-40.774,31.152c-7.435,8.419-9.292,16.48-2.167,25.879c8.107,10.693,16.789,12.63,27.736,5.23
					c5.01-3.386,9.54-6.021,15.761-6.017C235.956-10.45,242.427-8.258,248.955-10.388z"/>
				<path fill="#BCB1B3" d="M233.918-23.733c-16.179,10.498-36.827,9.772-52.295-0.098c-0.798,4.513,0.424,9.146,4.229,14.165
					c8.107,10.693,16.789,12.63,27.736,5.23c5.01-3.386,9.54-6.021,15.761-6.017c6.608,0.002,13.079,2.193,19.607,0.063
					c17.704-5.776,19.919-33.901,5.835-44.751C252.409-42.643,245.227-31.073,233.918-23.733z"/>
			</g>
		</g>
		<g>
			<g>
				<path fill="#C1AC91" d="M450.169-67.661c2.486-8.418-2.899-18.117-8.809-23.568c-9.239-8.525-24.714-11.336-36.956-10.393
					c-15.537,1.197-28.245,14.979-35.479,27.875c-5.832,10.394-4.071,21.712,6.642,27.901c5.516,3.188,12.337,4.618,15.84,10.415
					c3.698,6.123,2.795,14.033,5.646,20.512c8.347,18.982,25.903,1.774,30.112-10.277c2.819-8.077,4.501-16.307,9.39-23.506
					C440.834-55.001,447.946-60.137,450.169-67.661z"/>
				<path fill="#B5A088" d="M404.407-90.098c6.615,6.365,13.844,13.142,16.547,22.396c-0.315-1.082,3.035,9.76,3.567,14.563
					c1.576,14.197-2.631,28.617-11.555,39.755c-2.005,2.503-4.236,4.797-6.63,6.886c8.314,0.798,17.87-10.225,20.83-18.697
					c2.819-8.077,4.501-16.307,9.39-23.506c4.279-6.3,11.391-11.436,13.614-18.959c2.486-8.418-2.899-18.117-8.809-23.568
					c-9.239-8.525-24.714-11.336-36.956-10.393c-4.509,0.348-8.775,1.761-12.744,3.897C396.775-95.53,401.725-92.677,404.407-90.098
					z"/>
			</g>
		</g>
		<g>
			<g>
				<path fill-rule="evenodd" clip-rule="evenodd" fill="#C5B9BB" d="M206.993-202.155c6.251-19.107-4.902-35.445-20.914-44.967
					c-8.082-4.807-16.786-8.285-26.184-9.184c-8.687-0.83-15.097,2.212-23.238,3.248c-15.868,2.021-34.232-2.079-47.107,10.152
					c-6.285,5.97-17.991,15.209-17.229,24.902c0.959,12.203,18.778,17.912,27.41,23.387c18.192,11.535,20.118,47.73,47.961,38.285
					c13.044-4.426,25.728-13.404,37.133-20.983C194.248-183.575,203.354-191.028,206.993-202.155z"/>
				<path fill-rule="evenodd" clip-rule="evenodd" fill="#BCB1B3" d="M186.079-247.122c-6.212-3.695-12.793-6.599-19.773-8.155
					c4.634,9.358,7.145,19.743,7.145,30.323v1c0,18.041-7.253,35.541-20.003,48.291c-7.436,7.436-16.494,12.986-26.326,16.334
					c5.052,4.271,11.408,6.105,20.57,2.998c13.044-4.426,25.728-13.404,37.133-20.983c9.423-6.261,18.529-13.714,22.168-24.841
					C213.245-221.262,202.091-237.6,186.079-247.122z"/>
			</g>
			<g>
				<path fill-rule="evenodd" clip-rule="evenodd" fill="#C5B9BB" d="M115.307-51.937c-0.547,7.43,4.918,12.312,11.525,14.312
					c3.335,1.01,6.775,1.486,10.235,0.972c3.198-0.475,5.233-2.14,8.069-3.236c5.527-2.14,12.498-2.3,16.039-7.846
					c1.729-2.706,5.117-7.071,3.98-10.489c-1.432-4.304-8.348-4.771-11.94-5.972c-7.57-2.53-11.485-15.377-20.658-9.5
					c-4.297,2.752-8.06,7.11-11.488,10.852C118.237-59.754,115.625-56.263,115.307-51.937z"/>
				<path fill-rule="evenodd" clip-rule="evenodd" fill="#BCB1B3" d="M126.832-37.625c2.563,0.776,5.189,1.234,7.838,1.173
					c-2.5-2.953-4.327-6.466-5.269-10.271l-0.089-0.359c-1.606-6.488-0.555-13.429,2.896-19.15c2.013-3.336,4.776-6.139,8.015-8.218
					c-2.198-1.087-4.647-1.18-7.666,0.754c-4.297,2.752-8.06,7.11-11.488,10.852c-2.832,3.091-5.443,6.582-5.762,10.908
					C114.759-44.507,120.225-39.625,126.832-37.625z"/>
			</g>
			<g>
				<path fill-rule="evenodd" clip-rule="evenodd" fill="#D9AF97" d="M309.93-190.144c-12.772,4.14-22.261,10.774-36.295,11.358
					c-13.162,0.549-26.582-2.228-38.701-7.314c-7.619-3.197-16.651-9.42-25.353-7.066c-16.859,4.563-13.685,39.816-2.966,48.707
					c8.95,7.428,21.194,9.822,31.016,15.887c8.83,5.449,17.202,13.873,28.453,10.002c12.89-4.436,16.75-19.408,27.125-26.9
					c11.091-8.008,27.479-5.762,35.415-18.693c5.007-8.16,3.627-18.024-4.02-23.783C319.636-191.688,314.729-191.7,309.93-190.144z"
					/>
				<path fill-rule="evenodd" clip-rule="evenodd" fill="#CEA38E" d="M324.604-187.948c-3.747-2.82-7.458-3.52-11.115-3.025
					c-7.349,29.729-34.593,52.314-66.333,52.314c-18.555,0-35.576-7.719-47.986-20.07c1.497,6.166,4.104,11.498,7.444,14.27
					c8.95,7.428,21.194,9.822,31.016,15.887c8.83,5.449,17.202,13.873,28.453,10.002c12.89-4.436,16.75-19.408,27.125-26.9
					c11.091-8.008,27.479-5.762,35.415-18.693C333.63-172.325,332.25-182.189,324.604-187.948z"/>
			</g>
			<g>
				<path fill-rule="evenodd" clip-rule="evenodd" fill="#C5B9BB" d="M309.73-303.094c10.814-0.099,19.707-2.908,30.633,0.029
					c10.248,2.754,19.891,8.126,27.976,14.96c5.084,4.295,10.523,11.256,17.779,11.548c14.057,0.562,20.124-27.296,14.033-36.715
					c-5.086-7.868-13.917-12.663-20.002-19.694c-5.471-6.317-9.872-14.812-19.452-14.552c-10.976,0.299-17.556,10.874-27.337,14.128
					c-10.456,3.477-22.508-2.203-31.727,5.82c-5.817,5.063-7.137,12.976-2.65,19.247
					C301.898-304.249,305.667-303.056,309.73-303.094z"/>
				<path fill-rule="evenodd" clip-rule="evenodd" fill="#BCB1B3" d="M298.983-308.322c2.199,3.072,4.882,4.504,7.812,5.007
					c12.821-21.073,39.208-31.856,63.6-24.197c14.259,4.478,25.477,14.516,32.034,27.002c0.337-5.1-0.379-9.826-2.278-12.762
					c-5.086-7.868-13.917-12.663-20.002-19.694c-5.471-6.317-9.872-14.812-19.452-14.552c-10.976,0.299-17.556,10.874-27.337,14.128
					c-10.456,3.477-22.508-2.203-31.727,5.82C295.816-322.506,294.496-314.593,298.983-308.322z"/>
			</g>
			<g>
				<path fill-rule="evenodd" clip-rule="evenodd" fill="#C1AC91" d="M279.7-186.715c18.917-4.266,28.195-23.398,28.102-41.479
					c-0.076-14.732-6.984-27.213-10.156-41.225c-2.9-12.812-1.257-26.968-6.702-39.155c-3.013-6.741-11.472-17.344-19.043-18.923
					c-11.864-2.472-21.453,4.51-30.806,10.714c-10.344,6.861-21.893,10.167-34.01,12.036c-9.786,1.509-25.035,1.793-26.174,14.606
					c-1.404,15.768,10.12,22.857,20.601,31.193c8.729,6.942,16.506,15.411,20.242,26.076c3.35,9.564,3.324,20.713,8.389,29.65
					C238.297-188.829,265.043-183.411,279.7-186.715z"/>
				<g opacity="0.4">
					<path fill-rule="evenodd" clip-rule="evenodd" fill="#B5A088" d="M297.645-269.418c-2.9-12.812-1.257-26.968-6.702-39.155
						c-3.013-6.741-11.472-17.344-19.043-18.923c-11.864-2.472-21.453,4.51-30.806,10.714c-2.88,1.91-5.857,3.537-8.91,4.941
						c9.035,3.401,17.351,8.682,24.264,15.595c12.744,12.744,20.014,30.256,20.003,48.292c-0.006,10.711-3.102,26.867-9.621,35.909
						c-10.383,14.399-9.33,13.315-20.497,21.569c10.978,4.538,24.421,5.776,33.366,3.76c18.917-4.266,28.195-23.398,28.102-41.479
						C307.726-242.926,300.817-255.407,297.645-269.418z"/>
				</g>
			</g>
			<g>
				<path fill-rule="evenodd" clip-rule="evenodd" fill="#C4ABA6" d="M177.199-306.563c1.684-11.123-6.213-21.456-14.141-28.35
					c-6.793-5.907-14.453-13.447-23.299-15.804c-6.435-1.715-16.219-4.373-22.521-0.981c-6.669,3.59-8.936,8.623-17.546,9.583
					c-6.886,0.769-14.621,0.597-16.89,8.574c-2.168,7.621,2.841,16.719,4.433,24.037c1.768,8.127,0.639,16.527,2.362,24.604
					c3.789,17.761,26.625,26.248,42.955,26.9c15.568,0.623,29.169-7.164,34.489-21.828
					C170.142-288.38,175.843-297.615,177.199-306.563z"/>
				<g opacity="0.4">
					<path fill-rule="evenodd" clip-rule="evenodd" fill="#B79C98" d="M166.762-331.399c-0.845,24.73-21.699,45.091-46.606,45.091
						c-12.196,0-23.417-4.891-31.799-12.777c0.199,4.759,0.245,9.525,1.239,14.184c3.789,17.761,26.625,26.248,42.955,26.9
						c15.568,0.623,29.169-7.164,34.489-21.828c3.102-8.551,8.803-17.787,10.159-26.734
						C178.618-315.933,173.232-324.734,166.762-331.399z"/>
				</g>
			</g>
			<g>
				<path fill-rule="evenodd" clip-rule="evenodd" fill="#C4ABA6" d="M436.199-159.563c1.684-11.123-6.213-21.456-14.141-28.35
					c-6.793-5.907-14.453-13.447-23.299-15.805c-6.435-1.715-16.219-4.372-22.521-0.98c-6.669,3.59-8.936,8.623-17.546,9.584
					c-6.886,0.768-14.621,0.596-16.89,8.573c-2.168,7.62,2.841,16.719,4.433,24.036c1.768,8.128,0.639,16.527,2.362,24.604
					c3.789,17.762,26.625,26.248,42.955,26.9c15.568,0.623,29.169-7.164,34.489-21.828
					C429.142-141.379,434.843-150.616,436.199-159.563z"/>
				<g opacity="0.4">
					<path fill-rule="evenodd" clip-rule="evenodd" fill="#B79C98" d="M425.762-184.399c-0.845,24.73-21.699,45.092-46.606,45.092
						c-12.196,0-23.417-4.891-31.799-12.777c0.199,4.76,0.245,9.525,1.239,14.184c3.789,17.762,26.625,26.248,42.955,26.9
						c15.568,0.623,29.169-7.164,34.489-21.828c3.102-8.551,8.803-17.787,10.159-26.734
						C437.618-168.933,432.232-177.734,425.762-184.399z"/>
				</g>
			</g>
			<g>
				<path fill="#AB9F93" d="M182.753-63.131c25.756,6.859,50.325-25.48,41.362-49.355c-4.02-10.707-13.166-26.135-21.848-33.324
					c-20.934-17.332-50.813-0.5-72.667,5.59c-15.368,4.283-23.814,12.451-22.591,29.158c1.391,19.01,10.238,28.029,29.002,27.678
					c8.586-0.16,16.021,0.203,23.429,5.018C167.313-73.256,173.328-65.641,182.753-63.131z"/>
				<g opacity="0.4">
					<path fill="#A3968B" d="M175.156-90.659c-27.395,0-51.435-16.83-62.233-40.551c-4.44,4.76-6.567,11.227-5.914,20.146
						c1.391,19.01,10.238,28.029,29.002,27.678c8.586-0.16,16.021,0.203,23.429,5.018c7.873,5.111,13.888,12.727,23.313,15.236
						c25.561,6.807,49.946-24.99,41.555-48.807C211.809-98.891,194.304-90.659,175.156-90.659z"/>
				</g>
			</g>
			<g>
				<path fill="#C5B9BB" d="M248.955-330.79c17.84-5.82,19.956-34.336,5.512-45.001c-6.478-4.783-17.792-10.389-25.675-11.308
					c-19.005-2.212-30.201,19.18-40.774,31.152c-7.435,8.419-9.292,16.48-2.167,25.879c8.107,10.693,16.789,12.629,27.736,5.23
					c5.01-3.386,9.54-6.021,15.761-6.017C235.956-330.852,242.427-328.66,248.955-330.79z"/>
				<path fill="#BCB1B3" d="M233.918-344.135c-16.179,10.499-36.827,9.773-52.295-0.097c-0.798,4.513,0.424,9.147,4.229,14.165
					c8.107,10.693,16.789,12.629,27.736,5.23c5.01-3.386,9.54-6.021,15.761-6.017c6.608,0.001,13.079,2.193,19.607,0.063
					c17.704-5.776,19.919-33.901,5.835-44.751C252.409-363.045,245.227-351.474,233.918-344.135z"/>
			</g>
			<g>
				<path fill="#C4ABA6" d="M316.233-230.042c0.751,8.978,2.373,32.117,15.186,30.279c6.939-0.994,15.029-6.346,21.38-9.231
					c7.101-3.226,13.871-6.955,20.493-11.069c10.886-6.764,38.768-20.176,40.189-35.075c1.484-15.556-21.415-11.375-30.473-12.649
					c-17.894-2.516-36.408-2.599-52.699-11.631c-5.738-3.181-14.888-9.522-21.117-3.937c-6.362,5.705-1.97,17.152,0.257,23.684
					C312.838-249.733,315.355-240.549,316.233-230.042z"/>
				<g opacity="0.4">
					<path fill="#B79F9A" d="M410.847-263.276c-12.349,18.35-33.3,30.617-56.691,30.617c-15.155,0-29.287-5.149-40.72-13.766
						c1.334,5.293,2.317,10.639,2.797,16.383c0.751,8.978,2.373,32.117,15.186,30.279c6.939-0.994,15.029-6.346,21.38-9.231
						c7.101-3.226,13.871-6.955,20.493-11.069c10.886-6.764,38.768-20.176,40.189-35.075
						C413.839-258.877,412.777-261.467,410.847-263.276z"/>
				</g>
			</g>
			<g>
				<path fill="#9E9F99" d="M308.832-34.461c10.221,4.285,23.139-1.131,30.797-7.793c11.977-10.416,17.647-29.447,18.156-44.941
					c0.647-19.664-14.889-37.52-30.073-48.383c-12.237-8.758-26.684-8.113-35.935,4.475c-4.763,6.48-7.502,14.844-15.263,18.438
					c-8.196,3.795-17.997,1.566-26.523,4.248c-24.978,7.848-5.812,32.262,8.731,39.211c9.747,4.656,19.842,7.906,28.199,15.037
					C294.236-47.928,299.697-38.292,308.832-34.461z"/>
				<path fill="#989992" d="M343.323-88.788c-8.902,7.422-18.408,15.557-30.396,17.668c1.401-0.246-12.669,2.457-18.771,2.461
					c-18.035,0.014-35.549-7.262-48.292-20.004c-2.864-2.863-5.434-5.979-7.724-9.273c-2.152,10.324,10.357,23.842,20.582,28.729
					c9.747,4.656,19.842,7.906,28.199,15.037c7.315,6.242,12.776,15.879,21.911,19.709c10.221,4.285,23.139-1.131,30.797-7.793
					c11.977-10.416,17.647-29.447,18.156-44.941c0.188-5.707-0.994-11.258-3.127-16.533
					C351.196-97.614,346.93-91.795,343.323-88.788z"/>
			</g>
			<g>
				<path fill="#C1AC91" d="M108.903-67.661c2.486-8.418-2.899-18.117-8.809-23.568c-9.239-8.525-24.714-11.336-36.956-10.393
					c-15.537,1.197-28.245,14.979-35.479,27.875c-5.832,10.394-4.071,21.712,6.642,27.901c5.516,3.188,12.337,4.618,15.84,10.415
					c3.698,6.123,2.795,14.033,5.646,20.512C64.135,4.064,81.691-13.144,85.9-25.196c2.819-8.077,4.501-16.307,9.39-23.506
					C99.568-55.001,106.681-60.137,108.903-67.661z"/>
				<path fill="#B5A088" d="M63.141-90.098c6.615,6.365,13.844,13.142,16.547,22.396c-0.315-1.082,3.035,9.76,3.567,14.563
					c1.576,14.197-2.631,28.617-11.555,39.755c-2.005,2.503-4.236,4.797-6.63,6.886c8.314,0.798,17.87-10.225,20.83-18.697
					c2.819-8.077,4.501-16.307,9.39-23.506c4.279-6.3,11.391-11.436,13.614-18.959c2.486-8.418-2.899-18.117-8.809-23.568
					c-9.239-8.525-24.714-11.336-36.956-10.393c-4.509,0.348-8.775,1.761-12.744,3.897C55.509-95.53,60.459-92.677,63.141-90.098z"
					/>
			</g>
		</g>
		<g>
			<g>
				<path fill-rule="evenodd" clip-rule="evenodd" fill="#C4ABA6" d="M94.933-159.563c1.684-11.123-6.213-21.456-14.141-28.35
					c-6.793-5.907-14.453-13.447-23.299-15.805c-6.435-1.715-16.219-4.372-22.521-0.98c-6.669,3.59-8.936,8.623-17.546,9.584
					c-6.886,0.768-14.621,0.596-16.89,8.573c-2.168,7.62,2.841,16.719,4.433,24.036c1.768,8.128,0.639,16.527,2.362,24.604
					c3.789,17.762,26.625,26.248,42.955,26.9c15.568,0.623,29.169-7.164,34.489-21.828
					C87.876-141.379,93.578-150.616,94.933-159.563z"/>
				<g opacity="0.4">
					<path fill-rule="evenodd" clip-rule="evenodd" fill="#B79C98" d="M84.496-184.399c-0.845,24.73-21.699,45.092-46.606,45.092
						c-12.196,0-23.417-4.891-31.799-12.777c0.199,4.76,0.245,9.525,1.239,14.184c3.789,17.762,26.625,26.248,42.955,26.9
						c15.568,0.623,29.169-7.164,34.489-21.828c3.102-8.551,8.803-17.787,10.159-26.734
						C96.352-168.933,90.967-177.734,84.496-184.399z"/>
				</g>
			</g>
		</g>
		<g>
			<g>
				<path fill="#C1AC91" d="M450.169-388.063c2.486-8.418-2.899-18.117-8.809-23.568c-9.239-8.525-24.714-11.336-36.956-10.393
					c-15.537,1.197-28.245,14.979-35.479,27.875c-5.832,10.394-4.071,21.712,6.642,27.901c5.516,3.188,12.337,4.618,15.84,10.415
					c3.698,6.123,2.795,14.033,5.646,20.512c8.347,18.982,25.903,1.774,30.112-10.277c2.819-8.077,4.501-16.307,9.39-23.506
					C440.834-375.403,447.946-380.539,450.169-388.063z"/>
				<path fill="#B5A088" d="M404.407-410.5c6.615,6.365,13.844,13.142,16.547,22.396c-0.315-1.082,3.035,9.76,3.567,14.563
					c1.576,14.197-2.631,28.617-11.555,39.755c-2.005,2.503-4.236,4.797-6.63,6.886c8.314,0.798,17.87-10.225,20.83-18.697
					c2.819-8.077,4.501-16.307,9.39-23.506c4.279-6.3,11.391-11.436,13.614-18.959c2.486-8.418-2.899-18.117-8.809-23.568
					c-9.239-8.525-24.714-11.336-36.956-10.393c-4.509,0.348-8.775,1.761-12.744,3.897
					C396.775-415.932,401.725-413.079,404.407-410.5z"/>
			</g>
		</g>
		<g>
			<g>
				<path fill="#C1AC91" d="M108.903-388.063c2.486-8.418-2.899-18.117-8.809-23.568c-9.239-8.525-24.714-11.336-36.956-10.393
					c-15.537,1.197-28.245,14.979-35.479,27.875c-5.832,10.394-4.071,21.712,6.642,27.901c5.516,3.188,12.337,4.618,15.84,10.415
					c3.698,6.123,2.795,14.033,5.646,20.512c8.347,18.982,25.903,1.774,30.112-10.277c2.819-8.077,4.501-16.307,9.39-23.506
					C99.568-375.403,106.681-380.539,108.903-388.063z"/>
				<path fill="#B5A088" d="M63.141-410.5c6.615,6.365,13.844,13.142,16.547,22.396c-0.315-1.082,3.035,9.76,3.567,14.563
					c1.576,14.197-2.631,28.617-11.555,39.755c-2.005,2.503-4.236,4.797-6.63,6.886c8.314,0.798,17.87-10.225,20.83-18.697
					c2.819-8.077,4.501-16.307,9.39-23.506c4.279-6.3,11.391-11.436,13.614-18.959c2.486-8.418-2.899-18.117-8.809-23.568
					c-9.239-8.525-24.714-11.336-36.956-10.393c-4.509,0.348-8.775,1.761-12.744,3.897C55.509-415.932,60.459-413.079,63.141-410.5z
					"/>
			</g>
		</g>
	</g>
</pattern>
<rect fill-rule="evenodd" clip-rule="evenodd" fill="#DFD4CE" width="1400" height="980"/>
<pattern  id="SVGID_1_" xlink:href="#New_Pattern" patternTransform="matrix(1.8 0 0 1.8 6004.9531 5594.625)">
</pattern>
<rect fill-rule="evenodd" clip-rule="evenodd" fill="url(#SVGID_1_)" width="1400" height="980"/>
</svg>
